<svg width="87" height="96" viewBox="0 0 87 96" fill="none" xmlns="http://www.w3.org/2000/svg">
<path d="M85.4326 32.0903L79.8891 26.5298C79.0987 25.7373 77.8827 25.5169 76.8641 25.9827L66.8184 30.575H65.8607L80.5033 10.3616C80.9267 9.7771 81.0933 9.06372 80.9744 8.35254C80.8541 7.64209 80.4629 7.02173 79.8722 6.60791L77.7323 5.10718C77.1408 4.69263 76.4231 4.53516 75.7142 4.66479C75.0031 4.7937 74.3873 5.19214 73.9801 5.78833L60.3883 25.6685C59.5216 25.2327 58.5838 24.9668 57.6063 24.884L64.71 4.3667C64.9463 3.68481 64.8993 2.95386 64.5794 2.30786C64.2587 1.66186 63.7046 1.18139 63.0185 0.955076L60.5358 0.136228C59.8497 -0.0893576 59.1173 -0.0336938 58.4744 0.295164C57.8316 0.624022 57.3582 1.18359 57.141 1.8706L50.336 23.406C48.9505 21.271 46.5361 19.8713 43.8634 19.8713C42.4037 19.8713 41.0182 20.2874 39.8345 21.0147C40.1948 19.0144 40.2741 17.1885 40.1618 16.0378C40.0503 14.8975 39.7604 14.2053 39.2203 13.7937C38.8101 13.481 38.3052 13.3608 37.801 13.4568C36.621 13.6787 35.8739 14.9085 34.3856 17.3584C33.4441 18.9082 32.2721 20.8374 30.7934 22.7944C30.1557 23.6397 29.2288 24.3421 28.051 25.0532C27.9336 24.7559 27.7648 24.5061 27.5432 24.301C27.1271 23.9143 26.5738 23.7451 25.9859 23.8213C25.3981 23.8989 24.5094 24.0154 21.301 28.6663C20.8922 29.2581 20.4116 29.8359 19.8722 30.3838C19.8098 30.4468 19.754 30.5112 19.6946 30.575H19.5625L9.51676 25.9827C8.49816 25.5169 7.2829 25.7366 6.49254 26.5298L0.948262 32.0903C0.347235 32.6931 0.0669019 33.5545 0.197528 34.3945C0.328154 35.2346 0.857998 35.9707 1.61387 36.3626L10.1369 40.7857L19.0877 92.6075C19.4275 94.5733 21.1249 96 23.1232 96H63.2577C65.2567 96 66.9534 94.5733 67.2924 92.6075L76.244 40.7857L84.767 36.3626C85.5229 35.97 86.052 35.2346 86.1833 34.3945C86.3147 33.5545 86.0336 32.6931 85.4326 32.0903ZM67.9529 38.4353H60.1667L62.8996 34.6633C62.9906 34.6817 63.0838 34.6919 63.1777 34.6919C63.1975 34.6919 63.2173 34.6919 63.2386 34.6912C65.5297 34.6985 67.4509 36.2974 67.9529 38.4353ZM76.2337 7.52051L78.1065 8.83301L58.8436 35.4243C58.8289 35.3775 58.8113 35.332 58.7959 35.2852C58.7871 35.2603 58.7783 35.2354 58.7694 35.2105C58.6109 34.7549 58.4157 34.325 58.1794 33.928L76.2337 7.52051ZM59.8005 2.87915L61.9735 3.59546L52.5955 30.6804C52.0928 30.6445 51.574 30.6504 51.0449 30.6987C51.0331 30.6995 51.0207 30.7002 51.0082 30.7009L59.8005 2.87915ZM49.3805 33.9295C50.722 33.4746 52.0914 33.3692 53.2354 33.6321C53.2486 33.635 53.2604 33.6365 53.2736 33.6387C54.0177 33.8137 54.7795 34.1719 55.3666 34.856C55.368 34.8582 55.3695 34.8604 55.371 34.8626C55.5999 35.1299 55.7915 35.4361 55.9456 35.7788C55.9485 35.7847 55.9507 35.7898 55.9536 35.7957C56.027 35.9612 56.0909 36.1348 56.1474 36.3164C56.1525 36.334 56.1577 36.3523 56.1635 36.3706C56.1841 36.4417 56.2039 36.5142 56.2215 36.5867C56.2274 36.6101 56.234 36.6336 56.2391 36.6577C56.2611 36.7486 56.2809 36.8416 56.2986 36.9361V36.939L56.2993 36.9426C56.3411 37.1697 56.3881 37.3953 56.4365 37.6187C56.4519 37.6875 56.4673 37.7556 56.4835 37.8245C56.5202 37.9863 56.5591 38.1467 56.5994 38.3057C56.6104 38.3489 56.62 38.3928 56.631 38.4353H45.4236C45.4206 38.4339 45.4177 38.4317 45.4147 38.4295C45.3127 38.3606 45.2085 38.2932 45.1043 38.2258C45.0794 38.2097 45.0559 38.1936 45.0309 38.1775C44.9003 38.094 44.7682 38.012 44.6354 37.9314C45.5476 35.9693 47.3976 34.6011 49.3357 33.9404C49.3511 33.936 49.3658 33.9346 49.3805 33.9295ZM37.6329 27.3538C37.6403 27.3421 37.6476 27.3311 37.6542 27.3193C37.9287 27.3486 38.2098 27.2974 38.4593 27.1677C38.8115 26.9846 39.0706 26.6638 39.1748 26.2815C39.7472 24.1758 41.6758 22.7058 43.8641 22.7058C46.2616 22.7058 48.3289 24.4878 48.6723 26.8521C48.7127 27.1282 48.8345 27.3816 49.0158 27.5867L47.777 31.5051C45.439 32.4558 43.2932 34.1873 42.1212 36.6131C38.5231 34.9834 34.6329 34.1748 32.0439 33.7859C32.052 33.7778 32.0608 33.7683 32.0681 33.7603C32.1929 33.6314 32.3213 33.4966 32.4549 33.3574C32.4776 33.3333 32.5004 33.3098 32.5238 33.2857C32.6581 33.1443 32.7968 32.9985 32.9392 32.8484C32.962 32.8242 32.9847 32.8001 33.0082 32.7759C33.1542 32.6221 33.3032 32.4631 33.4566 32.3005C33.4779 32.2778 33.4991 32.2544 33.5212 32.2317C33.6775 32.0647 33.8375 31.8941 34.0004 31.7183C34.0202 31.697 34.04 31.6751 34.0598 31.6538C34.2271 31.4744 34.3966 31.2905 34.5698 31.1023C34.5867 31.0847 34.6029 31.0664 34.619 31.0488C34.7981 30.8547 34.9793 30.6563 35.1635 30.4534C35.1731 30.4431 35.1833 30.4321 35.1929 30.4212C35.3844 30.2102 35.5782 29.9963 35.7748 29.7774L35.7778 29.7744C35.9803 29.5481 36.1858 29.3189 36.3935 29.0852C36.3971 29.0808 36.4001 29.0764 36.4037 29.0728C36.5087 28.9541 36.6107 28.8318 36.7105 28.7073C36.7369 28.6743 36.7626 28.6392 36.7883 28.6055C36.8675 28.5044 36.9453 28.4019 37.0209 28.2971C37.0466 28.2612 37.0715 28.2239 37.0972 28.1873C37.175 28.0774 37.2513 27.9653 37.3255 27.8511C37.346 27.8189 37.3673 27.7874 37.3871 27.7551C37.4715 27.6233 37.5537 27.4893 37.6329 27.3538ZM18.1726 38.4353H14.8321L17.8335 35.4243C17.8291 36.3208 17.9443 37.3169 18.1726 38.4353ZM3.10726 33.9434L8.43065 28.604L16.8098 32.4338L11.1452 38.1152L3.10726 33.9434ZM69.9725 60.4146H61.2748C60.4903 60.4146 59.8548 61.0489 59.8548 61.8318C59.8548 62.614 60.4903 63.2483 61.2748 63.2483H69.483L68.1452 70.9944H61.4524C60.6687 70.9944 60.0324 71.6287 60.0324 72.4117C60.0324 73.1939 60.6687 73.8282 61.4524 73.8282H67.655L64.495 92.1263C64.3908 92.729 63.8705 93.1663 63.2577 93.1663H23.1239C22.5111 93.1663 21.9908 92.729 21.8866 92.1263L18.7259 73.8282H24.7971C25.5816 73.8282 26.2171 73.1939 26.2171 72.4117C26.2171 71.6287 25.5816 70.9944 24.7971 70.9944H18.2364L16.8986 63.2483H25.106C25.8905 63.2483 26.5261 62.614 26.5261 61.8318C26.5261 61.0489 25.8905 60.4146 25.106 60.4146H16.4091L13.1024 41.2698H73.2792L69.9725 60.4146ZM70.6557 37.5396L71.5488 38.4353H70.8406C70.7966 38.1306 70.7349 37.8318 70.6557 37.5396ZM75.2364 38.1145L69.5718 32.4338L77.9502 28.604L83.2743 33.9434L75.2364 38.1145Z" fill="#02A74F"></path>
</svg>