<svg width="96" height="96" viewBox="0 0 96 64" fill="none" xmlns="http://www.w3.org/2000/svg">
<path d="M3.91258 38.4819V41.9221C3.91258 43.1204 4.88816 44.0952 6.0864 44.0952H53.4842C54.6824 44.0952 55.6573 43.1204 55.6573 41.9221V38.4819C55.6573 37.3892 54.8457 36.4839 53.7932 36.333V23.2395C54.5176 22.2222 54.9446 20.98 54.9446 19.6396V17.1099C54.9446 17.1062 54.9439 17.1033 54.9439 17.1003C54.9439 17.0864 54.9424 17.0725 54.9417 17.0579C54.9402 17.0183 54.938 16.9788 54.9336 16.9399C54.9314 16.9238 54.9285 16.9077 54.9263 16.8923C54.9197 16.8535 54.9124 16.8154 54.9036 16.7781C54.8999 16.7634 54.8963 16.7495 54.8926 16.7349C54.8809 16.6924 54.867 16.6506 54.8516 16.6096C54.8487 16.603 54.8472 16.5964 54.845 16.5898L54.8362 16.5671C54.8347 16.5649 54.834 16.5635 54.8333 16.5613L52.1797 9.90356C51.7791 8.89868 50.8218 8.24902 49.7393 8.24902H22.0172C21.2409 8.24902 20.6125 8.87744 20.6125 9.65308C20.6125 10.4287 21.2409 11.0579 22.0172 11.0579H49.6163L51.4693 15.7058H7.40402L9.25631 11.0579H15.4826C16.2582 11.0579 16.8874 10.4287 16.8874 9.65308C16.8874 8.87744 16.2582 8.24902 15.4826 8.24902H9.134C8.05221 8.24902 7.09421 8.89795 6.69285 9.90356L4.04076 16.5598C4.03856 16.5635 4.03709 16.5679 4.03563 16.5723L4.0283 16.5898C4.02611 16.595 4.02537 16.6001 4.02318 16.6052C4.00633 16.6477 3.99242 16.6924 3.97996 16.7371C3.9763 16.7495 3.97337 16.762 3.97044 16.7744C3.96019 16.8147 3.95287 16.855 3.94627 16.896C3.94408 16.9099 3.94188 16.9231 3.93968 16.937C3.93456 16.9795 3.93163 17.0227 3.93016 17.0667C3.93016 17.0769 3.9287 17.0872 3.9287 17.0981C3.9287 17.1018 3.92796 17.1055 3.92796 17.1099V19.6389C3.92796 21.3865 4.65306 22.967 5.81614 24.0986V36.3271C4.74534 36.4612 3.91258 37.3752 3.91258 38.4819ZM14.9743 23.5728C16.1161 24.9702 17.8527 25.8645 19.7951 25.8645C21.7367 25.8645 23.4733 24.9702 24.6159 23.5728C25.7584 24.9702 27.4943 25.8645 29.4367 25.8645C31.3783 25.8645 33.1149 24.9702 34.2574 23.5728C35.4 24.9702 37.1366 25.8645 39.0782 25.8645C41.0199 25.8645 42.7564 24.9702 43.899 23.5728C45.0416 24.9702 46.7781 25.8645 48.7198 25.8645C49.5188 25.8645 50.2828 25.7114 50.9852 25.436V36.3088H8.62423V25.6741C9.11422 25.7986 9.62618 25.8645 10.1535 25.8645C12.0952 25.8645 13.8317 24.9709 14.9743 23.5728ZM6.72141 39.1169H52.8492V41.2864H6.72141V39.1169Z" fill="#02A74F"></path>
<path d="M94.9706 35.3413L88.1107 29.7229L79.8783 15.2612C79.8476 15.207 79.8132 15.155 79.7751 15.1052C79.1591 14.2966 78.185 13.814 77.1691 13.814H59.5706C58.0647 13.814 56.8386 15.04 56.8386 16.5459V52.5452H24.0138C23.6557 51.0503 22.8947 49.6323 21.7301 48.4685C18.3654 45.103 12.8906 45.103 9.52511 48.4685C8.36056 49.6331 7.60031 51.0503 7.24143 52.5452H4.0576C3.36913 52.5452 2.80883 51.9849 2.80883 51.2957V4.93335C2.80883 4.24414 3.36913 3.68384 4.0576 3.68384H66.7615C66.8501 3.68384 66.9292 3.74316 66.9555 3.83105L68.5771 9.29639C68.7976 10.0398 69.5791 10.4646 70.3225 10.2434C71.0659 10.0222 71.49 9.24072 71.2695 8.49731L69.6487 3.03418C69.2744 1.7627 68.0864 0.875 66.7615 0.875H4.0576C1.82006 0.875 0 2.6958 0 4.93335V51.2957C0 53.5332 1.82006 55.354 4.0576 55.354H7.03781C7.21286 57.2957 8.04196 59.1897 9.52511 60.6736C11.2075 62.356 13.4172 63.1968 15.6276 63.1968C17.8381 63.1968 20.0478 62.356 21.7301 60.6736C23.214 59.1897 24.0424 57.2957 24.2174 55.354H71.7822C71.9572 57.2957 72.7856 59.1897 74.2695 60.6736C75.9518 62.356 78.1616 63.1968 80.372 63.1968C82.5824 63.1968 84.7921 62.356 86.4745 60.6736C87.9584 59.1897 88.7868 57.2957 88.9625 55.354H92.2145C94.3019 55.354 96.0004 53.6555 96.0004 51.5681V37.5137C95.9996 36.6685 95.6246 35.8767 94.9706 35.3413ZM93.1908 44.6431H90.1124C90.0868 44.6431 90.0648 44.6262 90.059 44.6006L89.38 41.6665C89.3771 41.6555 89.3742 41.6401 89.3903 41.6204C89.4071 41.5991 89.4225 41.5991 89.4327 41.5991H93.1908V44.6431ZM93.1908 38.791H89.4335C88.5553 38.791 87.7379 39.1851 87.1916 39.8721C86.6452 40.5598 86.4459 41.4438 86.6437 42.2993L87.3234 45.2341C87.6251 46.54 88.7721 47.4519 90.1124 47.4519H93.1915V51.5681C93.1915 52.1072 92.7528 52.5452 92.2145 52.5452H88.7582C88.4 51.0503 87.6391 49.6323 86.4745 48.4685C83.1098 45.103 77.6349 45.103 74.2695 48.4685C73.1049 49.6331 72.344 51.0503 71.9858 52.5452H59.6482V16.6228H77.1691C77.2936 16.6228 77.413 16.6733 77.5002 16.7598L85.7992 31.3394C85.8842 31.4888 85.9962 31.6213 86.1295 31.7305L93.1908 37.5137V38.791Z" fill="#02A74F"></path>
<path d="M76.4697 20.1487C76.1511 19.5898 75.5542 19.2427 74.9111 19.2427H63.333C62.3442 19.2427 61.54 20.0469 61.54 21.0356V31.9194C61.54 32.9082 62.3442 33.7124 63.333 33.7124H79.0895C80.1581 33.7124 81.1161 33.1609 81.6537 32.2373C82.1906 31.3137 82.1957 30.2085 81.6669 29.2798L76.4697 20.1487ZM79.2258 30.8259C79.1804 30.9036 79.1144 30.9036 79.0895 30.9036H64.3481V22.0508H74.3208L79.2265 30.6692C79.239 30.6904 79.2712 30.7476 79.2258 30.8259Z" fill="#02A74F"></path>
</svg>