<svg width="96" height="96" viewBox="0 0 96 83" fill="none" xmlns="http://www.w3.org/2000/svg">
<path fill-rule="evenodd" clip-rule="evenodd" d="M86.1292 40.9223C86.1951 40.1349 86.8836 39.5515 87.6724 39.6161C88.4583 39.6821 89.042 40.3749 88.9754 41.1623C88.2854 49.3742 84.1751 57.3174 77.9788 62.4118C77.974 62.4157 77.9691 62.4195 77.9641 62.4234C77.9576 62.4284 77.951 62.4336 77.9444 62.439C77.9415 62.4419 77.9378 62.4448 77.9341 62.4478C73.73 65.8874 68.4537 67.9106 63.0689 68.1447C62.7195 68.1594 62.3716 68.1674 62.0266 68.1674C58.9219 68.1674 55.9834 67.5554 53.2771 66.3438C50.8118 65.2401 48.9222 63.7915 47.6602 62.0376C46.2063 60.018 45.6021 57.6689 45.0183 55.3976L44.9385 55.0887C43.7674 50.5505 42.3069 45.8083 39.5713 41.8771C36.6336 37.656 32.0266 34.1357 25.878 31.4138C25.1558 31.0938 24.8299 30.2492 25.1485 29.5263C25.4671 28.8027 26.3108 28.4754 27.0323 28.7954C33.6673 31.7323 38.6741 35.5828 41.9151 40.2399C44.9085 44.5424 46.4663 49.5745 47.7049 54.3717L47.7847 54.6829C48.3267 56.7904 48.8387 58.7815 49.9768 60.3636C50.9407 61.7029 52.4429 62.8353 54.4424 63.7306C57.0418 64.8937 59.9026 65.417 62.9451 65.2849C67.0511 65.1065 71.2295 63.6799 74.6712 61.3206C72.5017 59.3216 71.6294 56.4698 70.5022 52.7844C69.5933 49.8108 68.4617 46.11 66.2857 41.6437C62.19 33.2389 50.1263 27.2029 45.367 25.0872C44.0743 27.1383 41.7928 28.504 39.1978 28.504C35.1768 28.504 31.9051 25.2259 31.9051 21.197C31.9051 21.0708 31.908 20.9446 31.9146 20.8198C28.3045 20.0955 20.6902 18.7673 13.9871 18.8957C13.9702 19.0014 13.9578 19.1026 13.9497 19.1973C13.7732 21.3578 15.3479 23.3032 16.8801 24.4033C18.1289 25.3008 19.5454 25.9011 20.7656 26.3707C21.5025 26.6533 21.8701 27.4818 21.5874 28.2193C21.3047 28.9576 20.4785 29.3267 19.7425 29.0427C18.4336 28.54 16.7366 27.8223 15.2161 26.7303C12.449 24.7445 10.8728 21.768 11.1021 18.9639C11.1563 18.2983 11.3064 17.6503 11.5437 17.0221C11.551 17.0024 11.5583 16.9834 11.5656 16.9643C12.5192 14.5074 14.8477 12.3695 18.3194 10.8159C25.7608 7.4857 34.7776 6.27337 45.8855 7.11217C57.6372 7.99866 66.4058 10.22 73.481 14.1043C77.3182 16.2105 80.5738 18.9397 83.1021 22.0968C83.1248 22.1239 83.1468 22.1511 83.1665 22.1789C85.9695 25.7044 87.868 29.7582 88.6546 34.0711C88.7967 34.849 88.2825 35.5946 87.5061 35.7369C87.4197 35.7523 87.3333 35.7604 87.2476 35.7604C86.5708 35.7604 85.9703 35.2768 85.8443 34.5862C85.1763 30.9221 83.6016 27.4612 81.2791 24.4077C69.2571 23.8668 61.6311 27.3365 58.4759 29.1799C62.6499 32.1557 66.6827 35.9336 68.8528 40.3881C71.1277 45.0561 72.2959 48.8766 73.2342 51.9463C74.3614 55.631 75.0953 58.0256 76.9637 59.5102C82.0591 54.9302 85.5418 47.9086 86.1292 40.9223ZM46.4905 21.197C46.4905 21.6073 46.4554 22.0094 46.3902 22.402C48.5208 23.3355 52.1045 25.0417 55.8677 27.4267C58.3155 25.769 65.877 21.4913 78.7002 21.4869C76.8033 19.6237 74.5906 17.9776 72.1077 16.6149C65.4031 12.9338 57.0022 10.8211 45.6709 9.96613C35.0479 9.16549 26.4822 10.2978 19.4846 13.4292C17.6184 14.2643 16.3718 15.1655 15.542 16.027C22.2224 16.1012 29.2339 17.3487 32.6221 18.0378C33.7998 15.586 36.3047 13.8893 39.1978 13.8893C43.2188 13.8893 46.4905 17.1674 46.4905 21.197Z" fill="#02A74F"></path>
<path fill-rule="evenodd" clip-rule="evenodd" d="M57.5858 1.60849C68.1986 3.29048 77.7633 7.48153 84.5199 13.4089C92.0302 19.9982 95.9999 28.516 95.9999 38.0422C95.9999 44.0327 94.5116 50.0503 91.8434 55.4448C86.3231 69.0212 78.2115 75.5187 72.3698 78.5782C68.0228 80.8538 63.3397 82.0207 58.9188 82.0207C56.1232 82.0207 53.4322 81.5547 50.9955 80.6065C44.7604 78.1811 40.5497 75.3529 37.7445 71.7063C35.2365 68.447 34.2071 64.9386 33.2118 61.5464L33.2093 61.538C32.0287 57.5092 30.807 53.3438 27.0577 49.1895C23.395 45.1308 18.7441 43.0833 14.2458 41.1031L14.2425 41.1016C10.6178 39.5062 7.19442 37.9989 4.57088 35.55C1.57674 32.7555 0.0826009 29.0657 0.00203453 24.2699C-0.0909831 18.7587 3.00716 13.3883 8.96102 8.73422C9.17635 8.53021 9.39828 8.32913 9.62899 8.13173C13.992 4.39714 21.1082 1.85946 30.2079 0.793173C38.4527 -0.173315 48.1756 0.116558 57.5858 1.60849ZM89.2455 54.2494C89.2806 54.1635 89.3239 54.0828 89.3722 54.0072C91.7929 49.0508 93.1427 43.5358 93.1427 38.0422C93.1427 29.3658 89.5106 21.5921 82.6376 15.562C76.2816 9.98618 67.2259 6.03437 57.1398 4.4353C51.3932 3.52458 45.7513 3.08427 40.4544 3.08427C27.7052 3.08427 16.9459 5.63368 11.485 10.3083C8.71127 12.6816 7.30502 15.5738 7.30502 18.904C7.30502 28.4171 13.0259 30.649 20.2689 33.4749L20.2704 33.4754C24.9872 35.3152 30.3331 37.4008 34.4178 41.9265C38.5265 46.479 39.8444 51.451 41.0073 55.838L41.0082 55.8411C42.9579 63.2002 44.4982 69.0124 57.6444 71.6601C59.5421 72.0417 61.3527 72.2127 63.0702 72.2127C70.6053 72.2127 76.3761 68.9316 80.1364 65.8458C83.8864 62.7687 86.972 58.8015 89.1957 54.3697C89.2032 54.351 89.211 54.3325 89.2188 54.314C89.2278 54.2927 89.2369 54.2714 89.2455 54.2494Z" fill="#02A74F"></path>
</svg>