<?xml version="1.0" encoding="utf-8"?>
<!-- Generator: Adobe Illustrator 23.0.3, SVG Export Plug-In . SVG Version: 6.00 Build 0)  -->
<svg version="1.1" id="Layer_1" xmlns="http://www.w3.org/2000/svg" xmlns:xlink="http://www.w3.org/1999/xlink" x="0px" y="0px"
	 viewBox="0 0 595.28 841.89" style="enable-background:new 0 0 595.28 841.89;" xml:space="preserve">
<path d="M368.1,479.49c-31.41,0-62.44,0-94.32,0c11.44,8.07,17.68,18.69,17.73,32.96c0.03,10.86-3.8,20.06-11.1,27.43
	c-14.57,14.7-37.64,12.79-50.14-4.02c-12.48-16.78-10.02-42.68,10.42-56.55c-2.42,0-3.75,0.01-5.07,0
	c-9.46-0.1-18.98,0.45-28.38-0.46c-17.98-1.75-32.25-16.91-34.43-35.52c-2.37-20.22,7.25-37.98,24.59-45.41
	c0.84-0.36,1.68-0.73,2.85-1.23c-1.62-12.02-3.22-23.99-4.84-35.97c-5.15-38.15-10.3-76.29-15.45-114.44
	c-0.74-5.51-1.72-11-2.2-16.53c-0.26-3-1.34-3.73-3.94-3.72c-15.65,0.11-31.3,0.05-46.95,0.04c-1.31,0-2.64,0.05-3.94-0.05
	c-5.57-0.46-9.38-4.87-9.26-10.64c0.13-5.82,4.06-10.08,9.65-10.21c5.13-0.12,10.26-0.03,15.39-0.03c14.86,0,29.72,0,44.58,0
	c8.21,0,11.25,3.04,12.37,11.99c1.23,9.9,2.61,19.78,3.98,30.1c1.59,0,3,0,4.41,0c78.9,0,157.81,0,236.71,0c0.53,0,1.05,0,1.58,0
	c8.91,0.03,12.73,4.85,11.27,14.47c-2.41,15.92-4.96,31.82-7.43,47.73c-4.89,31.54-9.8,63.07-14.62,94.62
	c-1.39,9.11-4.3,11.93-12.89,11.93c-68.78,0-137.55-0.01-206.33,0.01c-12.24,0-20.87,9.16-20.64,21.71
	c0.2,10.82,8.24,19.92,18.18,20.51c1.84,0.11,3.68,0.06,5.52,0.06c75.75,0,151.5,0,227.24,0.01c5.99,0,9.91,2.69,11.02,7.52
	c1.68,7.3-2.66,13.4-9.88,13.47c-12.36,0.13-24.72,0.04-37.08,0.04c-1.27,0-2.54,0-4.97,0c11.69,8.3,17.91,18.97,17.96,33.17
	c0.04,10.5-3.63,19.52-10.58,26.83c-14,14.71-36.36,13.73-49.45-1.82C347.98,523.62,345.08,496.48,368.1,479.49z M413.4,394.77
	c6.55-42.18,13.04-84.05,19.57-126.12c-77.05,0-153.59,0-230.43,0c5.72,42.3,11.39,84.19,17.06,126.12
	C284.37,394.77,348.64,394.77,413.4,394.77z M400.33,512.15c-0.03-9.29-6.76-16.45-15.38-16.35c-8.3,0.09-14.93,7.42-14.91,16.49
	c0.02,9.21,6.86,16.46,15.42,16.36C393.81,528.55,400.36,521.28,400.33,512.15z M257.28,528.63c8.3-0.07,14.99-7.4,15-16.42
	c0-9.17-6.85-16.49-15.39-16.43c-8.35,0.06-14.91,7.29-14.91,16.42C241.98,521.52,248.68,528.71,257.28,528.63z"/>
</svg>
